<svg width="90" height="91" viewBox="0 0 90 91" fill="none" xmlns="http://www.w3.org/2000/svg">
<circle cx="45" cy="45.5" r="45" fill="#344C31"/>
<g clip-path="url(#clip0_3_569)">
<path d="M69.581 66.1491L66.027 63.6538C65.7247 63.4417 65.3335 63.4156 65.0059 63.5859C64.6782 63.7562 64.4747 64.0913 64.4747 64.4606V66.2225H57.3056V56.4226H58.1662C61.1703 56.4226 63.6143 53.9787 63.6143 50.9746V50.7032C63.6143 49.8092 62.8868 49.0817 61.9928 49.0817H61.2867C59.7168 49.0817 58.3007 49.7501 57.3056 50.8161V44.0586H59.4166C63.0145 44.0586 65.9417 41.1315 65.9417 37.5336C65.9417 36.8326 65.3714 36.2622 64.6704 36.2622H61.8259C61.7929 36.2622 61.7601 36.2632 61.7274 36.2643L61.6924 36.2653C61.2874 36.2741 60.9663 36.6097 60.9752 37.0147C60.9841 37.4196 61.3186 37.7436 61.7245 37.7319L61.7769 37.7303C61.7933 37.7298 61.8095 37.7291 61.8259 37.7291H64.471C64.3677 40.4278 62.1402 42.5916 59.4166 42.5916H57.3056V42.2494C57.3056 40.8546 57.9362 39.559 59.0359 38.6945C59.3544 38.4442 59.4096 37.9831 59.1593 37.6645C58.909 37.346 58.4478 37.2909 58.1294 37.5412C57.3401 38.1617 56.7351 38.9512 56.345 39.8377C55.5669 38.8892 54.3864 38.2827 53.0667 38.2827H51.7165C50.8691 38.2827 50.1797 38.9721 50.1797 39.8195C50.1797 42.1569 52.0813 44.0585 54.4186 44.0585H55.8388V54.5297V55.689V66.2223H50.9794C50.5742 66.2223 50.2459 66.5507 50.2459 66.9557C50.2459 67.3608 50.5742 67.6892 50.9794 67.6892H64.4748V69.4511C64.4748 69.8203 64.6783 70.1556 65.006 70.3259C65.1498 70.4006 65.3057 70.4375 65.4611 70.4375C65.6598 70.4375 65.8576 70.3771 66.0271 70.258L69.5811 67.7627C69.8438 67.5783 70.0005 67.2766 70.0005 66.9558C70.0004 66.6352 69.8436 66.3336 69.581 66.1491ZM51.6467 39.8197C51.6467 39.7812 51.678 39.7499 51.7165 39.7499H53.0667C54.5952 39.7499 55.8388 40.9934 55.8388 42.5219V42.5918H54.4186C52.8902 42.5918 51.6467 41.3483 51.6467 39.8197ZM61.2867 50.5488H61.9928C62.078 50.5488 62.1473 50.618 62.1473 50.7033V50.9747C62.1473 53.1699 60.3614 54.9558 58.1662 54.9558H57.3056V54.53C57.3056 52.3347 59.0915 50.5488 61.2867 50.5488ZM65.9417 68.5257V65.3864L68.1772 66.956L65.9417 68.5257Z" fill="#F7C35F"/>
<path d="M47.853 66.2225H45.7826V57.452H46.8607C49.6122 57.452 51.8506 55.2135 51.8506 52.4622V51.6166C51.8506 50.6794 51.0882 49.9171 50.1511 49.9171H49.3055C47.3091 49.9171 45.5836 51.0961 44.7865 52.794C44.1386 52.121 43.2298 51.7009 42.2241 51.7009H41.2989C40.5999 51.7009 40.0312 52.2696 40.0312 52.9686V53.8937C40.0312 55.8558 41.6275 57.4521 43.5897 57.4521H44.3156V66.2226H35.2391V63.7353H35.7823C38.0515 63.7353 39.8977 61.8891 39.8977 59.6198V58.7131C39.8977 57.9033 39.2389 57.2443 38.4289 57.2443H37.8876C36.3411 57.2443 34.9918 58.1021 34.2886 59.3666C33.7073 58.7892 32.9072 58.4318 32.025 58.4318H31.3126C30.6792 58.4318 30.164 58.9471 30.164 59.5803V60.5212C30.164 62.2934 31.6058 63.7352 33.378 63.7352H33.7721V66.2225H24.512V59.6856H25.2598C25.6649 59.6856 25.9932 59.3572 25.9932 58.9521C25.9932 58.5471 25.6649 58.2187 25.2598 58.2187H24.512V52.6292H25.2598C25.6649 52.6292 25.9932 52.3008 25.9932 51.8957C25.9932 51.4907 25.6649 51.1623 25.2598 51.1623H24.512V45.5729H25.2598C25.6649 45.5729 25.9932 45.2445 25.9932 44.8394C25.9932 44.4344 25.6649 44.106 25.2598 44.106H24.512V38.5166H25.2598C25.6649 38.5166 25.9932 38.1882 25.9932 37.7831C25.9932 37.378 25.6649 37.0496 25.2598 37.0496H24.512V31.4602H25.2598C25.6649 31.4602 25.9932 31.1318 25.9932 30.7267C25.9932 30.3216 25.6649 29.9932 25.2598 29.9932H24.512V26.0877H26.2739C26.6431 26.0877 26.9783 25.8842 27.1485 25.5565C27.3189 25.2289 27.293 24.8376 27.0808 24.5352L24.5854 20.9814C24.4011 20.7189 24.0996 20.5621 23.7788 20.562C23.7787 20.562 23.7786 20.562 23.7785 20.562C23.4578 20.562 23.1562 20.7187 22.9717 20.9814L20.4764 24.5352C20.2642 24.8374 20.238 25.2287 20.4084 25.5564C20.5788 25.8842 20.9139 26.0877 21.2832 26.0877H23.045V66.2225H20.7335C20.3283 66.2225 20 66.5509 20 66.956C20 67.3611 20.3283 67.6895 20.7335 67.6895H47.853C48.2582 67.6895 48.5865 67.3611 48.5865 66.956C48.5865 66.5509 48.2581 66.2225 47.853 66.2225ZM45.7826 54.9069C45.7826 52.9644 47.3629 51.3841 49.3055 51.3841H50.1511C50.2794 51.3841 50.3836 51.4884 50.3836 51.6166V52.4622C50.3836 54.4047 48.8033 55.9851 46.8607 55.9851H45.7826V55.2592V54.9069ZM41.4983 53.8937V53.1678H42.2242C43.3774 53.1678 44.3157 54.1061 44.3157 55.2593V55.9852H43.5898C42.4366 55.9852 41.4983 55.0469 41.4983 53.8937ZM35.2392 61.3598C35.2392 59.8994 36.4273 58.7114 37.8877 58.7114L38.4309 58.7132V59.6199C38.4309 61.0803 37.2428 62.2685 35.7824 62.2685H35.2392V61.646V61.3598ZM31.6312 60.5213V59.8988H32.0252C32.9886 59.8988 33.7723 60.6826 33.7723 61.6459V62.2684H33.3781C32.4148 62.2684 31.6312 61.4846 31.6312 60.5213ZM23.7785 22.3851L25.3483 24.6207H22.2088L23.7785 22.3851Z" fill="#F7C35F"/>
<path d="M56.1457 24.9957L53.1076 24.626C52.7057 24.5771 52.3397 24.8634 52.2908 25.2656C52.2419 25.6678 52.5282 26.0335 52.9303 26.0824L54.2191 26.2391L41.0376 36.6342L40.4627 35.4049C40.3669 35.1999 40.1818 35.0506 39.9611 35.0004C39.7407 34.9505 39.509 35.0045 39.3338 35.1479L28.0503 44.3787C27.7368 44.6353 27.6905 45.0974 27.9471 45.4109C28.0921 45.5881 28.3028 45.68 28.5152 45.68C28.6786 45.68 28.843 45.6257 28.9792 45.5142L39.5332 36.8801L40.1007 38.0939C40.1955 38.2968 40.3779 38.4452 40.5958 38.4969C40.8136 38.5485 41.0433 38.4979 41.2193 38.3591L55.3238 27.2365V28.9559C55.3238 29.361 55.6521 29.6894 56.0573 29.6894C56.4624 29.6894 56.7908 29.361 56.7908 28.9559V25.7239C56.7908 25.315 56.4645 25.0346 56.1457 24.9957Z" fill="#F7C35F"/>
</g>
<defs>
<clipPath id="clip0_3_569">
<rect width="50" height="50" fill="white" transform="translate(20 20.5)"/>
</clipPath>
</defs>
</svg>
